Coordinates
version=1
nRows=20
nColumns=38
inDegrees=no

Units are S.I. units (second, meters, Newtons, ...)
If the header above contains a line with 'inDegrees', this indicates whether rotational values are in degrees (yes) or radians (no).

endheader
time	pelvis_tilt	pelvis_list	pelvis_rotation	pelvis_tx	pelvis_ty	pelvis_tz	hip_flexion_r	hip_adduction_r	hip_rotation_r	knee_angle_r	ankle_angle_r	subtalar_angle_r	mtp_angle_r	hip_flexion_l	hip_adduction_l	hip_rotation_l	knee_angle_l	ankle_angle_l	subtalar_angle_l	mtp_angle_l	lumbar_extension	lumbar_bending	lumbar_rotation	arm_flex_r	arm_add_r	arm_rot_r	elbow_flex_r	pro_sup_r	wrist_flex_r	wrist_dev_r	arm_flex_l	arm_add_l	arm_rot_l	elbow_flex_l	pro_sup_l	wrist_flex_l	wrist_dev_l
0.95	-0.237445	1.42983	-1.29353	0.743297	-0.191049	1.02449	0.450107	0.0366973	-0.0159911	0.975346	0.0177558	0	0	-0.059583	-0.116996	-0.415115	0.697103	-0.0243023	0	0	-0.366154	0.0649124	0.195447	-0.346872	-0.340088	0.15821	0.717902	0.91495	0	0	0.549903	-0.621402	1.25062	0.751354	1.07028	0	0
0.96	-0.258604	1.4343	-1.26699	0.743333	-0.201329	1.02385	0.459087	0.0359747	-0.0151877	0.924104	0.0306025	0	0	-0.0674714	-0.119369	-0.411108	0.691442	-0.0213808	0	0	-0.360892	0.0675704	0.190316	-0.34255	-0.338213	0.162863	0.71265	0.914983	0	0	0.563665	-0.625487	1.239	0.759616	1.08139	0	0
0.97	-0.279825	1.44019	-1.24088	0.743334	-0.211732	1.02297	0.467145	0.0335412	-0.0155072	0.869162	0.0414574	0	0	-0.0740204	-0.121032	-0.407377	0.685632	-0.0185611	0	0	-0.354109	0.0694463	0.184458	-0.337498	-0.336347	0.168863	0.706637	0.914268	0	0	0.574179	-0.63052	1.22328	0.76876	1.09564	0	0
0.98	-0.304126	1.44714	-1.21151	0.743333	-0.22225	1.02188	0.473295	0.0300486	-0.0179089	0.810451	0.0510661	0	0	-0.0791451	-0.122718	-0.4038	0.680231	-0.0162825	0	0	-0.346024	0.0711458	0.178219	-0.332433	-0.334188	0.175033	0.700079	0.912737	0	0	0.582579	-0.635757	1.20566	0.778348	1.10903	0	0
0.99	-0.332141	1.45438	-1.17785	0.743382	-0.232886	1.02067	0.476961	0.0256778	-0.0234029	0.747522	0.0589839	0	0	-0.0836783	-0.124579	-0.400033	0.675057	-0.014235	0	0	-0.337414	0.0731331	0.17106	-0.327278	-0.332045	0.181499	0.693222	0.910627	0	0	0.589075	-0.640946	1.18724	0.787429	1.12099	0	0
1	-0.361983	1.46142	-1.14204	0.743452	-0.24369	1.01936	0.478563	0.0206419	-0.0315291	0.680302	0.0621039	0	0	-0.0885234	-0.126436	-0.396368	0.670031	-0.0122186	0	0	-0.328709	0.0752339	0.163291	-0.322192	-0.330073	0.188359	0.686092	0.908451	0	0	0.594353	-0.646156	1.16974	0.795867	1.13242	0	0
1.01	-0.394076	1.46796	-1.10366	0.743469	-0.254665	1.01801	0.476648	0.0166453	-0.0394078	0.607082	0.0590133	0	0	-0.0939608	-0.128623	-0.392915	0.665281	-0.0102699	0	0	-0.320418	0.0774869	0.154503	-0.316307	-0.328406	0.196908	0.677991	0.906341	0	0	0.597138	-0.651876	1.14939	0.804597	1.14654	0	0
1.02	-0.426924	1.47378	-1.06396	0.743533	-0.265796	1.01662	0.471053	0.0139283	-0.0453818	0.528745	0.049813	0	0	-0.100234	-0.131106	-0.389605	0.660732	-0.00877153	0	0	-0.312655	0.0800824	0.145673	-0.310924	-0.327029	0.205387	0.669753	0.905613	0	0	0.599411	-0.657117	1.13102	0.812619	1.15816	0	0
1.03	-0.459475	1.47803	-1.0235	0.743592	-0.277042	1.01528	0.459691	0.0133734	-0.0455894	0.443826	0.0294154	0	0	-0.107813	-0.134629	-0.385812	0.656438	-0.00795967	0	0	-0.306446	0.0834502	0.135954	-0.30569	-0.325983	0.213868	0.661842	0.90583	0	0	0.600801	-0.662625	1.11324	0.82042	1.16885	0	0
1.04	-0.484748	1.47994	-0.988981	0.743703	-0.288384	1.01405	0.441068	0.0143742	-0.0362457	0.35214	-0.00388143	0	0	-0.117493	-0.139207	-0.381361	0.652461	-0.0079606	0	0	-0.302812	0.0877865	0.125964	-0.301846	-0.325348	0.220527	0.655913	0.905978	0	0	0.603187	-0.667766	1.09922	0.827449	1.17706	0	0
1.05	-0.494948	1.4788	-0.96777	0.743954	-0.29989	1.01296	0.41281	0.0157802	-0.0154995	0.251663	-0.0520072	0	0	-0.130339	-0.144868	-0.376266	0.648562	-0.00897826	0	0	-0.302427	0.0932551	0.11548	-0.299947	-0.325267	0.224754	0.652508	0.907336	0	0	0.606971	-0.672501	1.08992	0.833681	1.18202	0	0
1.06	-0.48442	1.47468	-0.965911	0.744366	-0.311555	1.01202	0.378935	0.0155511	0.0120505	0.15487	-0.108549	0	0	-0.146822	-0.15107	-0.370961	0.644571	-0.0109214	0	0	-0.305839	0.0994742	0.104702	-0.30053	-0.325846	0.225195	0.652702	0.910392	0	0	0.611127	-0.676967	1.08255	0.839913	1.18502	0	0
1.07	-0.470027	1.47067	-0.967336	0.744911	-0.323332	1.01097	0.352507	0.0129414	0.0338097	0.0872475	-0.14514	0	0	-0.163059	-0.156936	-0.364789	0.641088	-0.0129383	0	0	-0.309048	0.105907	0.094013	-0.302963	-0.326733	0.2229	0.654279	0.914692	0	0	0.61509	-0.680762	1.07792	0.845015	1.18642	0	0
1.08	-0.466012	1.46777	-0.957875	0.745606	-0.335143	1.00983	0.337249	0.00999842	0.0442819	0.0529486	-0.164362	0	0	-0.176867	-0.162994	-0.358056	0.638624	-0.0150407	0	0	-0.310093	0.113236	0.083359	-0.306039	-0.328083	0.220182	0.655175	0.919082	0	0	0.618202	-0.683214	1.07527	0.847804	1.18804	0	0
1.09	-0.474164	1.46529	-0.936575	0.746308	-0.347003	1.00871	0.329729	0.00889347	0.047802	0.0423711	-0.175102	0	0	-0.188784	-0.170102	-0.351514	0.637644	-0.0171636	0	0	-0.309649	0.121722	0.0731784	-0.309256	-0.329945	0.217607	0.655252	0.923613	0	0	0.619596	-0.685209	1.07332	0.84946	1.19041	0	0
1.1	-0.493381	1.46372	-0.9066	0.746712	-0.359102	1.00755	0.328704	0.0104111	0.0493902	0.0501105	-0.179649	0	0	-0.19933	-0.177714	-0.347366	0.637251	-0.0196173	0	0	-0.307471	0.130246	0.0654498	-0.312709	-0.331897	0.215146	0.654019	0.927195	0	0	0.618901	-0.687075	1.07164	0.850471	1.1925	0	0
1.11	-0.515152	1.46276	-0.874155	0.746992	-0.371129	1.00634	0.338493	0.0129508	0.0368535	0.0898611	-0.173071	0	0	-0.207706	-0.184933	-0.340239	0.638323	-0.0237896	0	0	-0.305391	0.139336	0.0552891	-0.315889	-0.333761	0.209443	0.654452	0.937525	0	0	0.612632	-0.691826	1.06303	0.853967	1.1971	0	0
1.12	-0.555622	1.46548	-0.823068	0.747194	-0.383336	1.00471	0.362689	0.0145676	0.0135545	0.163362	-0.131866	0	0	-0.209767	-0.190897	-0.329728	0.642152	-0.0276384	0	0	-0.298153	0.147613	0.0440972	-0.319493	-0.334447	0.201537	0.653395	0.952056	0	0	0.602627	-0.697502	1.05279	0.857485	1.20359	0	0
1.13	-0.597183	1.4694	-0.770467	0.747368	-0.395823	1.00283	0.389254	0.0145729	-0.0103853	0.247383	-0.0849122	0	0	-0.209618	-0.195615	-0.31624	0.647573	-0.0315936	0	0	-0.288841	0.154645	0.0333595	-0.324792	-0.335037	0.194484	0.652689	0.964433	0	0	0.593968	-0.703157	1.04921	0.859835	1.20903	0	0
1.14	-0.62949	1.47287	-0.726734	0.747538	-0.408553	1.00092	0.410057	0.013617	-0.0295269	0.322203	-0.0541358	0	0	-0.209827	-0.199544	-0.300269	0.653987	-0.0361802	0	0	-0.280135	0.160949	0.0232685	-0.331837	-0.335757	0.187441	0.653427	0.974915	0	0	0.587029	-0.70883	1.05182	0.861319	1.21253	0	0
